<?xml version="1.0" standalone="no"?>
<!DOCTYPE svg PUBLIC "-//W3C//DTD SVG 20010904//EN"
 "http://www.w3.org/TR/2001/REC-SVG-20010904/DTD/svg10.dtd">
<svg version="1.0" xmlns="http://www.w3.org/2000/svg"
 width="300.000000pt" height="225.000000pt" viewBox="0 0 300.000000 225.000000"
 preserveAspectRatio="xMidYMid meet">
<metadata>
Created by potrace 1.10, written by Peter Selinger 2001-2011
</metadata>
<g transform="translate(0.000000,225.000000) scale(0.100000,-0.100000)"
fill="#000000" stroke="none">
<path d="M1731 1490 c-23 -33 -40 -60 -37 -60 3 0 55 68 82 108 3 5 44 -22 44
-29 0 -4 -29 -45 -64 -93 -36 -47 -62 -86 -58 -86 7 1 27 27 102 133 l34 49
-24 19 c-14 10 -28 19 -31 19 -3 0 -25 -27 -48 -60z"/>
<path d="M1237 1413 c32 -45 61 -83 65 -83 9 0 -56 91 -95 134 -16 17 -2 -6
30 -51z"/>
<path d="M1617 1422 c-9 -34 -17 -67 -16 -74 0 -7 9 16 20 52 10 36 18 69 16
74 -2 5 -11 -19 -20 -52z"/>
<path d="M988 1443 l-16 -27 150 -98 c139 -91 200 -129 188 -115 -6 7 -227
152 -282 186 -21 12 -38 28 -38 36 0 18 27 38 41 29 8 -4 9 -3 5 4 -12 20 -30
14 -48 -15z"/>
<path d="M1547 1412 c-9 -34 -17 -67 -16 -74 0 -7 9 16 20 52 10 36 18 69 16
74 -2 5 -11 -19 -20 -52z"/>
<path d="M1964 1458 c-4 -7 -3 -8 5 -4 14 9 41 -11 41 -29 0 -7 -22 -27 -50
-44 -27 -17 -50 -33 -50 -36 0 -8 52 23 87 51 26 20 27 24 14 48 -15 27 -35
34 -47 14z"/>
<path d="M1050 1447 c0 -3 27 -23 60 -45 33 -22 60 -37 60 -34 0 4 -15 16 -33
28 -17 11 -44 29 -59 38 -16 10 -28 16 -28 13z"/>
<path d="M1830 1374 c-68 -46 -89 -65 -34 -33 45 27 102 68 94 69 -3 0 -30
-16 -60 -36z"/>
<path d="M1465 1339 c7 -46 -8 -88 -43 -118 -26 -23 -26 -23 -2 -9 14 8 33 31
43 52 16 30 17 43 8 74 l-10 37 4 -36z"/>
<path d="M1758 1250 c-51 -32 -67 -53 -20 -24 34 19 79 54 72 54 -3 0 -26 -14
-52 -30z"/>
<path d="M900 1162 c0 -4 19 -6 43 -4 70 5 76 10 15 11 -32 0 -58 -2 -58 -7z"/>
<path d="M1793 1153 c26 -2 67 -2 90 0 23 2 2 3 -48 3 -49 0 -68 -1 -42 -3z"/>
<path d="M1321 1127 c19 -13 39 -38 46 -57 7 -19 12 -27 12 -18 1 29 -20 64
-49 81 -42 25 -48 21 -9 -6z"/>
<path d="M1058 1093 c23 -2 59 -2 80 0 20 2 1 4 -43 4 -44 0 -61 -2 -37 -4z"/>
<path d="M1878 1093 c23 -2 61 -2 85 0 23 2 4 4 -43 4 -47 0 -66 -2 -42 -4z"/>
<path d="M1310 1036 c0 -17 -17 -39 -52 -71 -29 -26 -43 -40 -30 -32 51 32 92
78 92 102 0 14 -2 25 -5 25 -3 0 -5 -11 -5 -24z"/>
<path d="M1175 1039 c-17 -8 -16 -8 7 -4 21 4 28 0 33 -16 4 -11 5 -22 3 -23
-1 -2 -12 -8 -23 -15 -18 -11 -18 -11 5 -5 33 9 33 8 25 43 -7 32 -16 36 -50
20z"/>
<path d="M1070 1010 c-30 -11 -46 -19 -35 -19 11 0 43 9 70 19 65 24 37 24
-35 0z"/>
<path d="M1899 1009 c30 -10 56 -17 58 -15 5 5 -86 36 -101 35 -6 0 13 -9 43
-20z"/>
<path d="M1547 959 c34 -17 46 -30 64 -75 12 -29 24 -52 27 -50 2 3 -7 29 -21
60 -24 52 -63 86 -99 86 -7 0 6 -9 29 -21z"/>
<path d="M1404 936 c-22 -35 -67 -159 -54 -151 5 3 10 10 10 15 0 20 42 121
57 135 8 9 13 18 10 21 -3 3 -13 -6 -23 -20z"/>
<path d="M1690 918 c20 -21 202 -166 245 -197 39 -27 -44 45 -130 114 -99 78
-140 108 -115 83z"/>
<path d="M1468 909 c-10 -5 -18 -15 -18 -20 0 -6 7 -3 16 5 27 27 60 19 82
-19 6 -11 12 -14 12 -7 0 18 -37 52 -57 52 -10 0 -26 -5 -35 -11z"/>
<path d="M1811 903 c0 -4 32 -32 72 -61 40 -30 56 -39 37 -22 -60 54 -110 92
-109 83z"/>
<path d="M1193 832 c-78 -65 -115 -98 -83 -76 32 22 170 136 170 140 0 7 -3 5
-87 -64z"/>
<path d="M1095 833 l-50 -46 50 38 c28 22 52 40 54 42 2 2 2 5 0 7 -2 2 -26
-16 -54 -41z"/>
<path d="M1508 813 c21 -4 22 -9 22 -109 l0 -104 -30 0 -29 0 -4 108 -3 107
-2 -112 -2 -113 40 0 41 0 -3 113 c-3 112 -3 112 -28 114 -22 1 -22 1 -2 -4z"/>
<path d="M1667 737 c14 -37 28 -65 30 -63 5 5 -36 109 -48 120 -5 5 3 -20 18
-57z"/>
<path d="M1603 726 c12 -30 23 -53 25 -51 6 6 -31 105 -39 105 -4 0 2 -24 14
-54z"/>
<path d="M1346 620 c-9 -22 -16 -46 -15 -53 0 -6 9 10 20 37 11 27 18 50 16
53 -3 2 -12 -14 -21 -37z"/>
<path d="M1631 658 c-1 -7 38 -110 43 -116 6 -5 66 20 66 28 0 5 -12 3 -27 -5
-28 -15 -43 -12 -43 8 -1 14 -38 95 -39 85z"/>
</g>
</svg>
